<svg xmlns="http://www.w3.org/2000/svg" style="display:none">

  <!-- Home -->
  <symbol id="icon-home" viewBox="0 0 24 24">
    <path fill="currentColor" d="M12 3l9 8h-3v10h-5v-6H11v6H6V11H3l9-8z"/>
  </symbol>

  <!-- Courses -->
  <symbol id="icon-courses" viewBox="0 0 24 24">
    <path fill="currentColor" d="M4 6h16v2H4V6zm0 4h16v2H4v-2zm0 4h10v2H4v-2z"/>
  </symbol>

  <!-- Students -->
  <symbol id="icon-students" viewBox="0 0 24 24">
    <path fill="currentColor" d="M12 12c2.2 0 4-1.8 4-4S14.2 4 12 4 8 5.8 8 8s1.8 4 4 4zm0 2c-3.3 0-6 2-6 4v2h12v-2c0-2-2.7-4-6-4z"/>
  </symbol>

  <!-- Dashboard -->
  <symbol id="icon-dashboard" viewBox="0 0 24 24">
    <path fill="currentColor" d="M3 13h8V3H3v10zm0 8h8v-6H3v6zm10 0h8V11h-8v10zm0-18v6h8V3h-8z"/>
  </symbol>

  <!-- Quiz -->
  <symbol id="icon-quiz" viewBox="0 0 24 24">
    <path fill="currentColor" d="M12 2C6.5 2 2 6.5 2 12s4.5 10 10 10 10-4.5 10-10S17.5 2 12 2zm-1 15h2v2h-2v-2zm2-2h-2c0-3 3-2.8 3-5 0-1.7-1.3-3-3-3s-3 1.3-3 3H8c0-2.8 2.2-5 5-5s5 2.2 5 5c0 3.5-3 3.2-3 5z"/>
  </symbol>

</svg>
