<svg xmlns="http://www.w3.org/2000/svg" style="display:none">

  <symbol id="icon-home" viewBox="0 0 24 24">
    <path fill="none" stroke="currentColor" stroke-width="1.8"
      d="M3 10.5L12 3l9 7.5M5 9.5V20h5v-6h4v6h5V9.5"/>
  </symbol>

  <symbol id="icon-courses" viewBox="0 0 24 24">
    <path fill="none" stroke="currentColor" stroke-width="1.8"
      d="M4 6h16M4 12h16M4 18h10"/>
  </symbol>

  <symbol id="icon-dashboard" viewBox="0 0 24 24">
    <path fill="none" stroke="currentColor" stroke-width="1.8"
      d="M3 3h8v8H3zM13 3h8v5h-8zM13 10h8v11h-8zM3 13h8v8H3z"/>
  </symbol>

  <symbol id="icon-quiz" viewBox="0 0 24 24">
    <path fill="none" stroke="currentColor" stroke-width="1.8"
      d="M9 9a3 3 0 1 1 6 0c0 2-3 2-3 4M12 17h.01M22 12a10 10 0 1 1-20 0 10 10 0 0 1 20 0z"/>
  </symbol>

</svg>
